<svg width="1024" height="1024" viewBox="0 0 1024 1024" fill="none" xmlns="http://www.w3.org/2000/svg">
<path d="M456 134H484V162H456V134Z" fill="black"/>
<path d="M484 134H512V162H484V134Z" fill="black"/>
<path d="M512 134H540V162H512V134Z" fill="black"/>
<path d="M540 134H568V162H540V134Z" fill="black"/>
<path d="M568 162H596V190H568V162Z" fill="black"/>
<path d="M596 162H624V190H596V162Z" fill="black"/>
<path d="M652 778H680V806H652V778Z" fill="black"/>
<path d="M680 778H708V806H680V778Z" fill="black"/>
<path d="M316 778H344V806H316V778Z" fill="black"/>
<path d="M344 778H372V806H344V778Z" fill="black"/>
<path d="M372 806H400V834H372V806Z" fill="black"/>
<path d="M400 806H428V834H400V806Z" fill="black"/>
<path d="M596 806H624V834H596V806Z" fill="black"/>
<path d="M624 806H652V834H624V806Z" fill="black"/>
<path d="M568 834H596V862H568V834Z" fill="black"/>
<path d="M428 834H456V862H428V834Z" fill="black"/>
<path d="M456 834H484V862H456V834Z" fill="black"/>
<path d="M484 834H512V862H484V834Z" fill="black"/>
<path d="M512 834H540V862H512V834Z" fill="black"/>
<path d="M540 834H568V862H540V834Z" fill="black"/>
<path d="M624 190H652V218H624V190Z" fill="black"/>
<path d="M652 218H680V246H652V218Z" fill="black"/>
<path d="M372 190H400V218H372V190Z" fill="black"/>
<path d="M344 218H372V246H344V218Z" fill="black"/>
<path d="M316 246H344V274H316V246Z" fill="black"/>
<path d="M316 274H344V302H316V274Z" fill="black"/>
<path d="M680 246H708V274H680V246Z" fill="black"/>
<path d="M680 274H708V302H680V274Z" fill="black"/>
<path d="M288 302H316V330H288V302Z" fill="black"/>
<path d="M288 330H316V358H288V330Z" fill="black"/>
<path d="M708 302H736V330H708V302Z" fill="black"/>
<path d="M708 330H736V358H708V330Z" fill="black"/>
<path d="M260 666H288V694H260V666Z" fill="black"/>
<path d="M232 638H260V666H232V638Z" fill="black"/>
<path d="M764 638H792V666H764V638Z" fill="black"/>
<path d="M260 694H288V722H260V694Z" fill="black"/>
<path d="M288 722H316V750H288V722Z" fill="black"/>
<path d="M288 750H316V778H288V750Z" fill="black"/>
<path d="M736 666H764V694H736V666Z" fill="black"/>
<path d="M736 694H764V722H736V694Z" fill="black"/>
<path d="M708 722H736V750H708V722Z" fill="black"/>
<path d="M708 750H736V778H708V750Z" fill="black"/>
<path d="M736 358H764V386H736V358Z" fill="black"/>
<path d="M736 386H764V414H736V386Z" fill="black"/>
<path d="M736 414H764V442H736V414Z" fill="black"/>
<path d="M260 358H288V386H260V358Z" fill="black"/>
<path d="M260 386H288V414H260V386Z" fill="black"/>
<path d="M260 414H288V442H260V414Z" fill="black"/>
<path d="M232 610H260V638H232V610Z" fill="black"/>
<path d="M232 442H260V470H232V442Z" fill="black"/>
<path d="M232 470H260V498H232V470Z" fill="black"/>
<path d="M232 498H260V526H232V498Z" fill="black"/>
<path d="M232 526H260V554H232V526Z" fill="black"/>
<path d="M232 554H260V582H232V554Z" fill="black"/>
<path d="M232 582H260V610H232V582Z" fill="black"/>
<path d="M764 610H792V638H764V610Z" fill="black"/>
<path d="M764 442H792V470H764V442Z" fill="black"/>
<path d="M764 470H792V498H764V470Z" fill="black"/>
<path d="M764 498H792V526H764V498Z" fill="black"/>
<path d="M764 526H792V554H764V526Z" fill="black"/>
<path d="M764 554H792V582H764V554Z" fill="black"/>
<path d="M764 582H792V610H764V582Z" fill="black"/>
<path d="M400 162H428V190H400V162Z" fill="black"/>
<path d="M428 162H456V190H428V162Z" fill="black"/>
</svg>
