<svg width="1024" height="1024" viewBox="0 0 1024 1024" fill="none" xmlns="http://www.w3.org/2000/svg">
<rect x="680" y="750" width="28" height="28" fill="white"/>
<rect x="372" y="274" width="28" height="28" fill="white"/>
<rect x="512" y="778" width="28" height="28" fill="white"/>
<rect x="288" y="694" width="28" height="28" fill="white"/>
<rect x="736" y="610" width="28" height="28" fill="white"/>
<rect x="260" y="638" width="28" height="28" fill="white"/>
<rect x="372" y="610" width="28" height="28" fill="white"/>
<rect x="316" y="722" width="28" height="28" fill="white"/>
<rect x="652" y="274" width="28" height="28" fill="white"/>
<rect x="596" y="190" width="28" height="28" fill="white"/>
<rect x="596" y="778" width="28" height="28" fill="white"/>
<rect x="624" y="778" width="28" height="28" fill="white"/>
<rect x="596" y="218" width="28" height="28" fill="white"/>
<rect x="624" y="218" width="28" height="28" fill="white"/>
<rect x="316" y="750" width="28" height="28" fill="white"/>
<rect x="344" y="750" width="28" height="28" fill="white"/>
<rect x="400" y="750" width="28" height="28" fill="white"/>
<rect x="428" y="750" width="28" height="28" fill="white"/>
<rect x="260" y="582" width="28" height="28" fill="white"/>
<rect x="288" y="582" width="28" height="28" fill="white"/>
<rect x="260" y="610" width="28" height="28" fill="white"/>
<rect x="288" y="610" width="28" height="28" fill="white"/>
<rect x="288" y="386" width="28" height="28" fill="white"/>
<rect x="316" y="386" width="28" height="28" fill="white"/>
<rect x="596" y="526" width="28" height="28" fill="white"/>
<rect x="624" y="526" width="28" height="28" fill="white"/>
<rect x="400" y="190" width="28" height="28" fill="white"/>
<rect x="428" y="190" width="28" height="28" fill="white"/>
<rect x="288" y="414" width="28" height="28" fill="white"/>
<rect x="316" y="414" width="28" height="28" fill="white"/>
<rect x="344" y="414" width="28" height="28" fill="white"/>
<rect x="344" y="246" width="28" height="28" fill="white"/>
<rect x="372" y="246" width="28" height="28" fill="white"/>
<rect x="400" y="246" width="28" height="28" fill="white"/>
<rect x="428" y="246" width="28" height="28" fill="white"/>
<rect x="456" y="246" width="28" height="28" fill="white"/>
<rect x="484" y="246" width="28" height="28" fill="white"/>
<rect x="540" y="246" width="28" height="28" fill="white"/>
<rect x="568" y="246" width="28" height="28" fill="white"/>
<rect x="596" y="246" width="28" height="28" fill="white"/>
<rect x="568" y="750" width="28" height="28" fill="white"/>
<rect x="596" y="750" width="28" height="28" fill="white"/>
<rect x="624" y="750" width="28" height="28" fill="white"/>
<rect x="484" y="750" width="28" height="28" fill="white"/>
<rect x="512" y="750" width="28" height="28" fill="white"/>
<rect x="372" y="778" width="28" height="28" fill="white"/>
<rect x="400" y="778" width="28" height="28" fill="white"/>
<rect x="428" y="778" width="28" height="28" fill="white"/>
<rect x="568" y="722" width="28" height="28" fill="white"/>
<rect x="596" y="722" width="28" height="28" fill="white"/>
<rect x="568" y="694" width="28" height="28" fill="white"/>
<rect x="288" y="554" width="28" height="28" fill="white"/>
<rect x="484" y="582" width="28" height="28" fill="white"/>
<rect x="652" y="610" width="28" height="28" fill="white"/>
<rect x="316" y="442" width="28" height="28" fill="white"/>
<rect x="512" y="442" width="28" height="28" fill="white"/>
<rect x="288" y="358" width="28" height="28" fill="white"/>
<rect x="456" y="274" width="28" height="28" fill="white"/>
<rect x="568" y="274" width="28" height="28" fill="white"/>
<rect x="624" y="414" width="28" height="28" fill="white"/>
<rect x="568" y="218" width="28" height="28" fill="white"/>
<rect x="624" y="246" width="28" height="28" fill="white"/>
<rect x="652" y="246" width="28" height="28" fill="white"/>
<rect x="540" y="750" width="28" height="28" fill="white"/>
<rect x="680" y="582" width="28" height="28" fill="white"/>
<rect x="708" y="582" width="28" height="28" fill="white"/>
<rect x="736" y="582" width="28" height="28" fill="white"/>
<rect x="680" y="554" width="28" height="28" fill="white"/>
<rect x="708" y="554" width="28" height="28" fill="white"/>
<rect x="736" y="554" width="28" height="28" fill="white"/>
<rect x="596" y="582" width="28" height="28" fill="white"/>
<rect x="624" y="582" width="28" height="28" fill="white"/>
<rect x="652" y="582" width="28" height="28" fill="white"/>
<rect x="596" y="554" width="28" height="28" fill="white"/>
<rect x="624" y="554" width="28" height="28" fill="white"/>
<rect x="456" y="554" width="28" height="28" fill="white"/>
<rect x="456" y="610" width="28" height="28" fill="white"/>
<rect x="428" y="582" width="28" height="28" fill="white"/>
<rect x="456" y="582" width="28" height="28" fill="white"/>
<rect x="428" y="386" width="28" height="28" fill="white"/>
<rect x="428" y="442" width="28" height="28" fill="white"/>
<rect x="400" y="414" width="28" height="28" fill="white"/>
<rect x="428" y="414" width="28" height="28" fill="white"/>
<rect x="456" y="694" width="28" height="28" fill="white"/>
<rect x="456" y="750" width="28" height="28" fill="white"/>
<rect x="428" y="722" width="28" height="28" fill="white"/>
<rect x="456" y="722" width="28" height="28" fill="white"/>
<rect x="568" y="554" width="28" height="28" fill="white"/>
<rect x="568" y="610" width="28" height="28" fill="white"/>
<rect x="540" y="582" width="28" height="28" fill="white"/>
<rect x="568" y="582" width="28" height="28" fill="white"/>
<rect x="708" y="386" width="28" height="28" fill="white"/>
<rect x="708" y="442" width="28" height="28" fill="white"/>
<rect x="680" y="414" width="28" height="28" fill="white"/>
<rect x="708" y="414" width="28" height="28" fill="white"/>
<rect x="596" y="386" width="28" height="28" fill="white"/>
<rect x="596" y="442" width="28" height="28" fill="white"/>
<rect x="568" y="414" width="28" height="28" fill="white"/>
<rect x="596" y="414" width="28" height="28" fill="white"/>
<rect x="652" y="554" width="28" height="28" fill="white"/>
<rect x="652" y="526" width="28" height="28" fill="white"/>
<rect x="680" y="526" width="28" height="28" fill="white"/>
<rect x="708" y="526" width="28" height="28" fill="white"/>
<rect x="624" y="498" width="28" height="28" fill="white"/>
<rect x="652" y="498" width="28" height="28" fill="white"/>
<rect x="680" y="498" width="28" height="28" fill="white"/>
<rect x="624" y="470" width="28" height="28" fill="white"/>
<rect x="652" y="470" width="28" height="28" fill="white"/>
<rect x="680" y="470" width="28" height="28" fill="white"/>
<rect x="624" y="442" width="28" height="28" fill="white"/>
<rect x="652" y="442" width="28" height="28" fill="white"/>
<rect x="680" y="442" width="28" height="28" fill="white"/>
<rect x="316" y="526" width="28" height="28" fill="white"/>
<rect x="344" y="526" width="28" height="28" fill="white"/>
<rect x="400" y="582" width="28" height="28" fill="white"/>
<rect x="400" y="554" width="28" height="28" fill="white"/>
<rect x="428" y="554" width="28" height="28" fill="white"/>
<rect x="316" y="582" width="28" height="28" fill="white"/>
<rect x="344" y="582" width="28" height="28" fill="white"/>
<rect x="372" y="582" width="28" height="28" fill="white"/>
<rect x="316" y="554" width="28" height="28" fill="white"/>
<rect x="344" y="554" width="28" height="28" fill="white"/>
<rect x="372" y="554" width="28" height="28" fill="white"/>
<rect x="372" y="526" width="28" height="28" fill="white"/>
<rect x="400" y="526" width="28" height="28" fill="white"/>
<rect x="428" y="526" width="28" height="28" fill="white"/>
<rect x="344" y="498" width="28" height="28" fill="white"/>
<rect x="372" y="498" width="28" height="28" fill="white"/>
<rect x="400" y="498" width="28" height="28" fill="white"/>
<rect x="344" y="470" width="28" height="28" fill="white"/>
<rect x="372" y="470" width="28" height="28" fill="white"/>
<rect x="400" y="470" width="28" height="28" fill="white"/>
<rect x="344" y="442" width="28" height="28" fill="white"/>
<rect x="372" y="442" width="28" height="28" fill="white"/>
<rect x="400" y="442" width="28" height="28" fill="white"/>
<rect x="484" y="666" width="28" height="28" fill="white"/>
<rect x="540" y="722" width="28" height="28" fill="white"/>
<rect x="540" y="694" width="28" height="28" fill="white"/>
<rect x="484" y="722" width="28" height="28" fill="white"/>
<rect x="512" y="722" width="28" height="28" fill="white"/>
<rect x="484" y="694" width="28" height="28" fill="white"/>
<rect x="512" y="694" width="28" height="28" fill="white"/>
<rect x="512" y="666" width="28" height="28" fill="white"/>
<rect x="540" y="666" width="28" height="28" fill="white"/>
<rect x="484" y="638" width="28" height="28" fill="white"/>
<rect x="512" y="638" width="28" height="28" fill="white"/>
<rect x="540" y="638" width="28" height="28" fill="white"/>
<rect x="484" y="610" width="28" height="28" fill="white"/>
<rect x="512" y="610" width="28" height="28" fill="white"/>
<rect x="540" y="610" width="28" height="28" fill="white"/>
<rect x="484" y="358" width="28" height="28" fill="white"/>
<rect x="540" y="414" width="28" height="28" fill="white"/>
<rect x="540" y="386" width="28" height="28" fill="white"/>
<rect x="484" y="414" width="28" height="28" fill="white"/>
<rect x="512" y="414" width="28" height="28" fill="white"/>
<rect x="484" y="386" width="28" height="28" fill="white"/>
<rect x="568" y="358" width="28" height="28" fill="white"/>
<rect x="568" y="386" width="28" height="28" fill="white"/>
<rect x="512" y="386" width="28" height="28" fill="white"/>
<rect x="512" y="358" width="28" height="28" fill="white"/>
<rect x="540" y="358" width="28" height="28" fill="white"/>
<rect x="484" y="330" width="28" height="28" fill="white"/>
<rect x="512" y="330" width="28" height="28" fill="white"/>
<rect x="540" y="330" width="28" height="28" fill="white"/>
<rect x="484" y="302" width="28" height="28" fill="white"/>
<rect x="512" y="302" width="28" height="28" fill="white"/>
<rect x="456" y="414" width="28" height="28" fill="white"/>
<rect x="456" y="386" width="28" height="28" fill="white"/>
<rect x="456" y="218" width="28" height="28" fill="white"/>
<rect x="400" y="218" width="28" height="28" fill="white"/>
<rect x="428" y="218" width="28" height="28" fill="white"/>
<rect x="372" y="218" width="28" height="28" fill="white"/>
<rect x="456" y="358" width="28" height="28" fill="white"/>
<rect x="540" y="302" width="28" height="28" fill="white"/>
<rect x="484" y="274" width="28" height="28" fill="white"/>
<rect x="512" y="274" width="28" height="28" fill="white"/>
<rect x="540" y="274" width="28" height="28" fill="white"/>
</svg>
