<svg width="1024" height="1024" viewBox="0 0 1024 1024" fill="none" xmlns="http://www.w3.org/2000/svg">
<path d="M316 638H344V666H316V638Z" fill="#E05E5E"/>
<path d="M316 610H344V638H316V610Z" fill="#E05E5E"/>
<path d="M344 610H372V638H344V610Z" fill="#E05E5E"/>
<path d="M400 610H428V638H400V610Z" fill="#E05E5E"/>
<path d="M428 610H456V638H428V610Z" fill="#E05E5E"/>
<path d="M344 638H372V666H344V638Z" fill="#E05E5E"/>
<path d="M372 638H400V666H372V638Z" fill="#E05E5E"/>
<path d="M400 638H428V666H400V638Z" fill="#E05E5E"/>
<path d="M344 666H372V694H344V666Z" fill="#E05E5E"/>
<path d="M372 666H400V694H372V666Z" fill="#E05E5E"/>
<path d="M400 666H428V694H400V666Z" fill="#E05E5E"/>
<path d="M316 666H344V694H316V666Z" fill="#E05E5E"/>
<path d="M288 638H316V666H288V638Z" fill="#E05E5E"/>
<path d="M288 666H316V694H288V666Z" fill="#E05E5E"/>
<path d="M456 638H484V666H456V638Z" fill="#E05E5E"/>
<path d="M456 666H484V694H456V666Z" fill="#E05E5E"/>
<path d="M428 666H456V694H428V666Z" fill="#E05E5E"/>
<path d="M428 694H456V722H428V694Z" fill="#E05E5E"/>
<path d="M316 694H344V722H316V694Z" fill="#E05E5E"/>
<path d="M344 722H372V750H344V722Z" fill="#E05E5E"/>
<path d="M400 722H428V750H400V722Z" fill="#E05E5E"/>
<path d="M400 694H428V722H400V694Z" fill="#E05E5E"/>
<path d="M372 694H400V722H372V694Z" fill="#E05E5E"/>
<path d="M344 694H372V722H344V694Z" fill="#E05E5E"/>
<path d="M372 750H400V778H372V750Z" fill="#E05E5E"/>
<path d="M372 722H400V750H372V722Z" fill="#E05E5E"/>
<path d="M428 638H456V666H428V638Z" fill="#E05E5E"/>
<path d="M456 470H484V498H456V470Z" fill="#E05E5E"/>
<path d="M456 442H484V470H456V442Z" fill="#E05E5E"/>
<path d="M484 442H512V470H484V442Z" fill="#E05E5E"/>
<path d="M540 442H568V470H540V442Z" fill="#E05E5E"/>
<path d="M568 442H596V470H568V442Z" fill="#E05E5E"/>
<path d="M484 470H512V498H484V470Z" fill="#E05E5E"/>
<path d="M512 470H540V498H512V470Z" fill="#E05E5E"/>
<path d="M540 470H568V498H540V470Z" fill="#E05E5E"/>
<path d="M484 498H512V526H484V498Z" fill="#E05E5E"/>
<path d="M512 498H540V526H512V498Z" fill="#E05E5E"/>
<path d="M540 498H568V526H540V498Z" fill="#E05E5E"/>
<path d="M456 498H484V526H456V498Z" fill="#E05E5E"/>
<path d="M428 470H456V498H428V470Z" fill="#E05E5E"/>
<path d="M428 498H456V526H428V498Z" fill="#E05E5E"/>
<path d="M596 470H624V498H596V470Z" fill="#E05E5E"/>
<path d="M596 498H624V526H596V498Z" fill="#E05E5E"/>
<path d="M568 498H596V526H568V498Z" fill="#E05E5E"/>
<path d="M568 526H596V554H568V526Z" fill="#E05E5E"/>
<path d="M456 526H484V554H456V526Z" fill="#E05E5E"/>
<path d="M484 554H512V582H484V554Z" fill="#E05E5E"/>
<path d="M540 554H568V582H540V554Z" fill="#E05E5E"/>
<path d="M540 526H568V554H540V526Z" fill="#E05E5E"/>
<path d="M512 526H540V554H512V526Z" fill="#E05E5E"/>
<path d="M484 526H512V554H484V526Z" fill="#E05E5E"/>
<path d="M512 582H540V610H512V582Z" fill="#E05E5E"/>
<path d="M512 554H540V582H512V554Z" fill="#E05E5E"/>
<path d="M568 470H596V498H568V470Z" fill="#E05E5E"/>
<path d="M596 638H624V666H596V638Z" fill="#E05E5E"/>
<path d="M596 610H624V638H596V610Z" fill="#E05E5E"/>
<path d="M624 610H652V638H624V610Z" fill="#E05E5E"/>
<path d="M680 610H708V638H680V610Z" fill="#E05E5E"/>
<path d="M708 610H736V638H708V610Z" fill="#E05E5E"/>
<path d="M624 638H652V666H624V638Z" fill="#E05E5E"/>
<path d="M652 638H680V666H652V638Z" fill="#E05E5E"/>
<path d="M680 638H708V666H680V638Z" fill="#E05E5E"/>
<path d="M624 666H652V694H624V666Z" fill="#E05E5E"/>
<path d="M652 666H680V694H652V666Z" fill="#E05E5E"/>
<path d="M680 666H708V694H680V666Z" fill="#E05E5E"/>
<path d="M596 666H624V694H596V666Z" fill="#E05E5E"/>
<path d="M568 638H596V666H568V638Z" fill="#E05E5E"/>
<path d="M568 666H596V694H568V666Z" fill="#E05E5E"/>
<path d="M736 638H764V666H736V638Z" fill="#E05E5E"/>
<path d="M708 666H736V694H708V666Z" fill="#E05E5E"/>
<path d="M708 694H736V722H708V694Z" fill="#E05E5E"/>
<path d="M596 694H624V722H596V694Z" fill="#E05E5E"/>
<path d="M624 722H652V750H624V722Z" fill="#E05E5E"/>
<path d="M680 722H708V750H680V722Z" fill="#E05E5E"/>
<path d="M680 694H708V722H680V694Z" fill="#E05E5E"/>
<path d="M652 694H680V722H652V694Z" fill="#E05E5E"/>
<path d="M624 694H652V722H624V694Z" fill="#E05E5E"/>
<path d="M652 750H680V778H652V750Z" fill="#E05E5E"/>
<path d="M652 722H680V750H652V722Z" fill="#E05E5E"/>
<path d="M708 638H736V666H708V638Z" fill="#E05E5E"/>
<path d="M736 470H764V498H736V470Z" fill="#E05E5E"/>
<path d="M736 442H764V470H736V442Z" fill="#E05E5E"/>
<path d="M736 498H764V526H736V498Z" fill="#E05E5E"/>
<path d="M708 470H736V498H708V470Z" fill="#E05E5E"/>
<path d="M708 498H736V526H708V498Z" fill="#E05E5E"/>
<path d="M736 526H764V554H736V526Z" fill="#E05E5E"/>
<path d="M260 442H288V470H260V442Z" fill="#E05E5E"/>
<path d="M288 442H316V470H288V442Z" fill="#E05E5E"/>
<path d="M260 470H288V498H260V470Z" fill="#E05E5E"/>
<path d="M260 498H288V526H260V498Z" fill="#E05E5E"/>
<path d="M316 470H344V498H316V470Z" fill="#E05E5E"/>
<path d="M316 498H344V526H316V498Z" fill="#E05E5E"/>
<path d="M288 498H316V526H288V498Z" fill="#E05E5E"/>
<path d="M288 526H316V554H288V526Z" fill="#E05E5E"/>
<path d="M260 554H288V582H260V554Z" fill="#E05E5E"/>
<path d="M260 526H288V554H260V526Z" fill="#E05E5E"/>
<path d="M288 470H316V498H288V470Z" fill="#E05E5E"/>
<path d="M456 806H484V834H456V806Z" fill="#E05E5E"/>
<path d="M456 778H484V806H456V778Z" fill="#E05E5E"/>
<path d="M484 778H512V806H484V778Z" fill="#E05E5E"/>
<path d="M540 778H568V806H540V778Z" fill="#E05E5E"/>
<path d="M568 778H596V806H568V778Z" fill="#E05E5E"/>
<path d="M484 806H512V834H484V806Z" fill="#E05E5E"/>
<path d="M512 806H540V834H512V806Z" fill="#E05E5E"/>
<path d="M540 806H568V834H540V806Z" fill="#E05E5E"/>
<path d="M428 806H456V834H428V806Z" fill="#E05E5E"/>
<path d="M568 806H596V834H568V806Z" fill="#E05E5E"/>
<path d="M596 302H624V330H596V302Z" fill="#E05E5E"/>
<path d="M596 274H624V302H596V274Z" fill="#E05E5E"/>
<path d="M624 274H652V302H624V274Z" fill="#E05E5E"/>
<path d="M624 302H652V330H624V302Z" fill="#E05E5E"/>
<path d="M652 302H680V330H652V302Z" fill="#E05E5E"/>
<path d="M624 330H652V358H624V330Z" fill="#E05E5E"/>
<path d="M652 330H680V358H652V330Z" fill="#E05E5E"/>
<path d="M596 330H624V358H596V330Z" fill="#E05E5E"/>
<path d="M568 302H596V330H568V302Z" fill="#E05E5E"/>
<path d="M568 330H596V358H568V330Z" fill="#E05E5E"/>
<path d="M596 358H624V386H596V358Z" fill="#E05E5E"/>
<path d="M624 386H652V414H624V386Z" fill="#E05E5E"/>
<path d="M652 358H680V386H652V358Z" fill="#E05E5E"/>
<path d="M680 386H708V414H680V386Z" fill="#E05E5E"/>
<path d="M680 358H708V386H680V358Z" fill="#E05E5E"/>
<path d="M680 330H708V358H680V330Z" fill="#E05E5E"/>
<path d="M708 358H736V386H708V358Z" fill="#E05E5E"/>
<path d="M680 302H708V330H680V302Z" fill="#E05E5E"/>
<path d="M624 358H652V386H624V358Z" fill="#E05E5E"/>
<path d="M652 414H680V442H652V414Z" fill="#E05E5E"/>
<path d="M652 386H680V414H652V386Z" fill="#E05E5E"/>
<path d="M344 274H372V302H344V274Z" fill="#E05E5E"/>
<path d="M400 274H428V302H400V274Z" fill="#E05E5E"/>
<path d="M428 274H456V302H428V274Z" fill="#E05E5E"/>
<path d="M344 302H372V330H344V302Z" fill="#E05E5E"/>
<path d="M372 302H400V330H372V302Z" fill="#E05E5E"/>
<path d="M400 302H428V330H400V302Z" fill="#E05E5E"/>
<path d="M344 330H372V358H344V330Z" fill="#E05E5E"/>
<path d="M316 302H344V330H316V302Z" fill="#E05E5E"/>
<path d="M316 330H344V358H316V330Z" fill="#E05E5E"/>
<path d="M316 358H344V386H316V358Z" fill="#E05E5E"/>
<path d="M372 330H400V358H372V330Z" fill="#E05E5E"/>
<path d="M400 330H428V358H400V330Z" fill="#E05E5E"/>
<path d="M456 302H484V330H456V302Z" fill="#E05E5E"/>
<path d="M456 330H484V358H456V330Z" fill="#E05E5E"/>
<path d="M428 330H456V358H428V330Z" fill="#E05E5E"/>
<path d="M428 358H456V386H428V358Z" fill="#E05E5E"/>
<path d="M344 386H372V414H344V386Z" fill="#E05E5E"/>
<path d="M400 386H428V414H400V386Z" fill="#E05E5E"/>
<path d="M400 358H428V386H400V358Z" fill="#E05E5E"/>
<path d="M372 358H400V386H372V358Z" fill="#E05E5E"/>
<path d="M344 358H372V386H344V358Z" fill="#E05E5E"/>
<path d="M372 414H400V442H372V414Z" fill="#E05E5E"/>
<path d="M372 386H400V414H372V386Z" fill="#E05E5E"/>
<path d="M428 302H456V330H428V302Z" fill="#E05E5E"/>
<path d="M568 190H596V218H568V190Z" fill="#E05E5E"/>
<path d="M484 218H512V246H484V218Z" fill="#E05E5E"/>
<path d="M540 218H568V246H540V218Z" fill="#E05E5E"/>
<path d="M540 190H568V218H540V190Z" fill="#E05E5E"/>
<path d="M512 190H540V218H512V190Z" fill="#E05E5E"/>
<path d="M484 190H512V218H484V190Z" fill="#E05E5E"/>
<path d="M456 190H484V218H456V190Z" fill="#E05E5E"/>
<path d="M540 162H568V190H540V162Z" fill="#E05E5E"/>
<path d="M512 162H540V190H512V162Z" fill="#E05E5E"/>
<path d="M484 162H512V190H484V162Z" fill="#E05E5E"/>
<path d="M456 162H484V190H456V162Z" fill="#E05E5E"/>
<path d="M512 246H540V274H512V246Z" fill="#E05E5E"/>
<path d="M512 218H540V246H512V218Z" fill="#E05E5E"/>
</svg>
