<svg width="1024" height="1024" viewBox="0 0 1024 1024" fill="none" xmlns="http://www.w3.org/2000/svg">
<path d="M316 834H344V862H316V834Z" fill="#C0C0C0"/>
<path d="M680 834H708V862H680V834Z" fill="#C0C0C0"/>
<path d="M372 834H400V862H372V834Z" fill="#C0C0C0"/>
<path d="M344 834H372V862H344V834Z" fill="#C0C0C0"/>
<path d="M372 862H400V890H372V862Z" fill="#C0C0C0"/>
<path d="M652 834H680V862H652V834Z" fill="#C0C0C0"/>
<path d="M624 834H652V862H624V834Z" fill="#C0C0C0"/>
<path d="M624 862H652V890H624V862Z" fill="#C0C0C0"/>
<path d="M568 862H596V890H568V862Z" fill="#C0C0C0"/>
<path d="M540 862H568V890H540V862Z" fill="#C0C0C0"/>
<path d="M596 834H624V862H596V834Z" fill="#C0C0C0"/>
<path d="M596 862H624V890H596V862Z" fill="#C0C0C0"/>
<path d="M512 862H540V890H512V862Z" fill="#C0C0C0"/>
<path d="M484 862H512V890H484V862Z" fill="#C0C0C0"/>
<path d="M400 834H428V862H400V834Z" fill="#C0C0C0"/>
<path d="M456 862H484V890H456V862Z" fill="#C0C0C0"/>
<path d="M428 862H456V890H428V862Z" fill="#C0C0C0"/>
<path d="M400 862H428V890H400V862Z" fill="#C0C0C0"/>
</svg>
