<svg width="1024" height="1024" viewBox="0 0 1024 1024" fill="none" xmlns="http://www.w3.org/2000/svg">
<g opacity="0.05">
<rect x="512" y="778" width="28" height="28" fill="#030303"/>
<rect x="428" y="778" width="28" height="28" fill="#030303"/>
<rect x="428" y="750" width="28" height="28" fill="#030303"/>
<rect x="456" y="750" width="28" height="28" fill="#030303"/>
<rect x="484" y="750" width="28" height="28" fill="#030303"/>
<rect x="512" y="750" width="28" height="28" fill="#030303"/>
<rect x="540" y="750" width="28" height="28" fill="#030303"/>
<rect x="568" y="750" width="28" height="28" fill="#030303"/>
<rect x="596" y="750" width="28" height="28" fill="#030303"/>
<rect x="540" y="722" width="28" height="28" fill="#030303"/>
<rect x="568" y="722" width="28" height="28" fill="#030303"/>
<rect x="596" y="722" width="28" height="28" fill="#030303"/>
<rect x="568" y="694" width="28" height="28" fill="#030303"/>
<rect x="596" y="694" width="28" height="28" fill="#030303"/>
<rect x="624" y="694" width="28" height="28" fill="#030303"/>
<rect x="624" y="666" width="28" height="28" fill="#030303"/>
<rect x="652" y="666" width="28" height="28" fill="#030303"/>
<rect x="680" y="666" width="28" height="28" fill="#030303"/>
<rect x="624" y="638" width="28" height="28" fill="#030303"/>
<rect x="652" y="638" width="28" height="28" fill="#030303"/>
<rect x="680" y="638" width="28" height="28" fill="#030303"/>
<rect x="652" y="610" width="28" height="28" fill="#030303"/>
<rect x="680" y="610" width="28" height="28" fill="#030303"/>
<rect x="708" y="610" width="28" height="28" fill="#030303"/>
<rect x="680" y="582" width="28" height="28" fill="#030303"/>
<rect x="708" y="582" width="28" height="28" fill="#030303"/>
<rect x="680" y="554" width="28" height="28" fill="#030303"/>
<rect x="708" y="554" width="28" height="28" fill="#030303"/>
<rect x="680" y="526" width="28" height="28" fill="#030303"/>
<rect x="708" y="526" width="28" height="28" fill="#030303"/>
<rect x="680" y="498" width="28" height="28" fill="#030303"/>
<rect x="708" y="498" width="28" height="28" fill="#030303"/>
<rect x="680" y="470" width="28" height="28" fill="#030303"/>
<rect x="708" y="470" width="28" height="28" fill="#030303"/>
<rect x="680" y="442" width="28" height="28" fill="#030303"/>
<rect x="708" y="442" width="28" height="28" fill="#030303"/>
<rect x="652" y="386" width="28" height="28" fill="#030303"/>
<rect x="680" y="386" width="28" height="28" fill="#030303"/>
<rect x="652" y="414" width="28" height="28" fill="#030303"/>
<rect x="680" y="414" width="28" height="28" fill="#030303"/>
<rect x="652" y="358" width="28" height="28" fill="#030303"/>
<rect x="680" y="358" width="28" height="28" fill="#030303"/>
<rect x="624" y="302" width="28" height="28" fill="#030303"/>
<rect x="652" y="302" width="28" height="28" fill="#030303"/>
<rect x="596" y="246" width="28" height="28" fill="#030303"/>
<rect x="624" y="246" width="28" height="28" fill="#030303"/>
<rect x="540" y="190" width="28" height="28" fill="#030303"/>
<rect x="568" y="190" width="28" height="28" fill="#030303"/>
<rect x="540" y="778" width="28" height="28" fill="#030303"/>
<rect x="568" y="218" width="28" height="28" fill="#030303"/>
<rect x="652" y="582" width="28" height="28" fill="#030303"/>
<rect x="652" y="694" width="28" height="28" fill="#030303"/>
<rect x="596" y="218" width="28" height="28" fill="#030303"/>
<rect x="624" y="274" width="28" height="28" fill="#030303"/>
<rect x="652" y="330" width="28" height="28" fill="#030303"/>
<rect x="512" y="722" width="28" height="28" fill="#030303"/>
</g>
</svg>
