<svg width="1024" height="1024" viewBox="0 0 1024 1024" fill="none" xmlns="http://www.w3.org/2000/svg">
<rect x="348" y="242" width="24" height="24" fill="black"/>
<rect x="372" y="266" width="24" height="24" fill="black"/>
<rect x="396" y="266" width="24" height="24" fill="black"/>
<rect x="420" y="242" width="24" height="24" fill="black"/>
<rect x="420" y="218" width="24" height="24" fill="black"/>
<rect x="420" y="194" width="24" height="24" fill="black"/>
<rect x="420" y="170" width="24" height="24" fill="black"/>
<rect x="396" y="170" width="24" height="24" fill="black"/>
<rect x="492" y="266" width="24" height="24" fill="black"/>
<rect x="516" y="266" width="24" height="24" fill="black"/>
<rect x="468" y="218" width="24" height="24" fill="black"/>
<rect x="468" y="194" width="24" height="24" fill="black"/>
<rect x="468" y="170" width="24" height="24" fill="black"/>
<rect x="468" y="242" width="24" height="24" fill="black"/>
<rect x="540" y="218" width="24" height="24" fill="black"/>
<rect x="540" y="194" width="24" height="24" fill="black"/>
<rect x="540" y="170" width="24" height="24" fill="black"/>
<rect x="540" y="242" width="24" height="24" fill="black"/>
<rect x="684" y="218" width="24" height="24" fill="black"/>
<rect x="684" y="194" width="24" height="24" fill="black"/>
<rect x="588" y="266" width="24" height="24" fill="black"/>
<rect x="684" y="266" width="24" height="24" fill="black"/>
<rect x="636" y="218" width="24" height="24" fill="black"/>
<rect x="612" y="194" width="24" height="24" fill="black"/>
<rect x="660" y="194" width="24" height="24" fill="black"/>
<rect x="684" y="170" width="24" height="24" fill="black"/>
<rect x="684" y="242" width="24" height="24" fill="black"/>
<rect x="588" y="218" width="24" height="24" fill="black"/>
<rect x="588" y="194" width="24" height="24" fill="black"/>
<rect x="588" y="170" width="24" height="24" fill="black"/>
<rect x="588" y="242" width="24" height="24" fill="black"/>
<rect x="348" y="242" width="24" height="24" fill="black"/>
</svg>
